<svg xmlns="http://www.w3.org/2000/svg" xmlns:xlink="http://www.w3.org/1999/xlink" width="722" zoomAndPan="magnify" viewBox="0 0 541.5 187.499995" height="250" preserveAspectRatio="xMidYMid meet" version="1.0"><defs><g/><clipPath id="b57541a5be"><path d="M 0.472656 14 L 163 14 L 163 177 L 0.472656 177 Z M 0.472656 14 " clip-rule="nonzero"/></clipPath><clipPath id="f7bd06e21e"><path d="M 0.472656 0.320312 L 162.394531 0.320312 L 162.394531 162.242188 L 0.472656 162.242188 Z M 0.472656 0.320312 " clip-rule="nonzero"/></clipPath><clipPath id="d04411a248"><path d="M 5.707031 0.320312 L 157.15625 0.320312 C 160.050781 0.320312 162.394531 2.664062 162.394531 5.554688 L 162.394531 157.007812 C 162.394531 159.898438 160.050781 162.242188 157.15625 162.242188 L 5.707031 162.242188 C 2.816406 162.242188 0.472656 159.898438 0.472656 157.007812 L 0.472656 5.554688 C 0.472656 2.664062 2.816406 0.320312 5.707031 0.320312 Z M 5.707031 0.320312 " clip-rule="nonzero"/></clipPath><clipPath id="410a124e40"><path d="M 0.472656 0.320312 L 162.394531 0.320312 L 162.394531 162.242188 L 0.472656 162.242188 Z M 0.472656 0.320312 " clip-rule="nonzero"/></clipPath><clipPath id="749229c735"><path d="M 5.707031 0.320312 L 157.15625 0.320312 C 160.050781 0.320312 162.394531 2.664062 162.394531 5.554688 L 162.394531 157.007812 C 162.394531 159.898438 160.050781 162.242188 157.15625 162.242188 L 5.707031 162.242188 C 2.816406 162.242188 0.472656 159.898438 0.472656 157.007812 L 0.472656 5.554688 C 0.472656 2.664062 2.816406 0.320312 5.707031 0.320312 Z M 5.707031 0.320312 " clip-rule="nonzero"/></clipPath><clipPath id="0140b37cfe"><rect x="0" width="163" y="0" height="163"/></clipPath><clipPath id="d138e01a7d"><rect x="0" width="163" y="0" height="163"/></clipPath><clipPath id="05dd587317"><path d="M 196 65 L 540.53125 65 L 540.53125 125 L 196 125 Z M 196 65 " clip-rule="nonzero"/></clipPath><clipPath id="0dc804ba69"><rect x="0" width="345" y="0" height="60"/></clipPath></defs><g clip-path="url(#b57541a5be)"><g transform="matrix(1, 0, 0, 1, 0.000000000000000111, 14)"><g clip-path="url(#d138e01a7d)"><g clip-path="url(#f7bd06e21e)"><g clip-path="url(#d04411a248)"><g transform="matrix(1, 0, 0, 1, 0.000000000000000111, -0.000000000000003553)"><g clip-path="url(#0140b37cfe)"><g clip-path="url(#410a124e40)"><g clip-path="url(#749229c735)"><path fill="#c91f37" d="M 0.472656 0.320312 L 162.394531 0.320312 L 162.394531 162.242188 L 0.472656 162.242188 Z M 0.472656 0.320312 " fill-opacity="1" fill-rule="nonzero"/></g></g></g></g></g></g><path fill="#ffffff" d="M 51.902344 71.066406 C 57.234375 74.378906 57.234375 75.808594 55.140625 79.660156 C 59.515625 79.371094 64.460938 79.796875 66.574219 80.824219 C 69.933594 82.390625 71.21875 85.835938 68.96875 87.972656 C 67.421875 89.40625 66.277344 93.28125 63.585938 106.175781 C 61.210938 117.777344 56.984375 125.222656 47.804688 130.792969 C 45.253906 132.371094 42.289062 131.375 41.726562 128.804688 C 41.023438 125.789062 39.472656 122.488281 37.078125 119.34375 C 35.808594 117.636719 36.785156 115.476562 38.898438 116.632812 C 45.550781 119.773438 47.941406 119.914062 49.628906 117.636719 C 55.832031 109.035156 58.964844 98.285156 59.808594 90.113281 C 60.179688 86.40625 58.652344 84.703125 53.589844 82.53125 C 41.316406 104.152344 31.574219 114.199219 17.152344 120.058594 C 14.363281 121.054688 13.050781 119.773438 16.207031 117.351562 C 23.644531 111.03125 32.972656 101.582031 38.054688 94.144531 C 45.113281 84.121094 47.507812 77.511719 47.367188 72.792969 C 42.5625 74.242188 37.914062 75.660156 32.972656 76.949219 C 30.421875 77.664062 27.171875 77.511719 23.363281 75.519531 C 20.296875 73.8125 20.679688 72.511719 24.34375 71.796875 C 28.878906 71.066406 40.175781 68.050781 52.179688 63.207031 C 63.4375 58.59375 64.988281 58.308594 67.417969 58.59375 C 72.054688 59.027344 73.914062 62.644531 69.089844 64.492188 C 63.054688 66.910156 57.402344 69.0625 51.898438 71.066406 Z M 54.296875 47.851562 C 52.453125 45.863281 47.097656 39.132812 44.976562 35.683594 C 43.570312 33.546875 43.710938 32.410156 46.667969 32.835938 C 58.398438 34.398438 61.207031 37.699219 62.023438 44.71875 C 62.753906 50.882812 59.238281 53.042969 54.296875 47.851562 Z M 98.472656 53.894531 C 95.214844 54.609375 90.960938 54.03125 86.898438 52.464844 C 83.78125 56.175781 80.382812 59.59375 77.429688 61.640625 C 73.914062 63.921875 72.617188 62.785156 75.171875 59.757812 C 80.714844 52.753906 86.324219 42.292969 88.4375 36.679688 C 90.566406 30.988281 90.703125 27.941406 89.851562 25.65625 C 88.714844 22.664062 89.851562 21.242188 96.214844 23.523438 C 103.40625 26.082031 103.53125 28.53125 100.847656 31.558594 C 99.742188 32.699219 97.753906 35.828125 95.777344 39.5625 C 94.089844 42.730469 91.679688 46.429688 89.152344 49.882812 C 92.804688 49.574219 98.464844 47.851562 110.738281 43.152344 C 114.539062 41.726562 120.621094 41.140625 122.566406 42.152344 C 126.25 44.148438 126.964844 45.285156 123.570312 46.714844 C 120.195312 48.136719 109.617188 51.320312 98.464844 53.894531 Z M 118.519531 118.628906 C 116.683594 117.058594 109.476562 109.597656 101.859375 100.5625 C 96.773438 94.855469 90.847656 88.824219 85.902344 84.125 C 86.746094 96.585938 86.472656 109.464844 85.757812 122.910156 C 92.386719 118.347656 96.914062 115.355469 99.035156 113.902344 C 101.433594 112.316406 103.277344 111.75 103.835938 112.460938 C 104.367188 113.175781 103.691406 114.203125 101.433594 116.496094 C 95.070312 122.910156 88.011719 131.378906 83.496094 137.265625 C 80.246094 141.542969 77.851562 140.972656 75.777344 135.394531 C 74.476562 131.9375 74.742188 128.949219 75.777344 127.660156 C 78.570312 123.941406 80.117188 118.777344 80.246094 99.851562 C 80.382812 83.988281 79.539062 81.253906 77.554688 77.804688 C 75.777344 74.386719 77.554688 71.804688 84.066406 75.8125 C 95.363281 70.5 101.160156 65.636719 101.6875 63.355469 C 102.265625 59.890625 104.117188 60.054688 108.476562 62.929688 C 112.84375 65.773438 113.414062 68.90625 111.585938 69.492188 C 109.894531 70.070312 105.386719 71.363281 101.433594 73.105469 C 97.167969 74.808594 90.429688 77.238281 85.328125 78.515625 C 85.484375 79.082031 85.628906 79.804688 85.628906 80.390625 C 90.429688 82.398438 92.960938 84.980469 103.277344 95.019531 C 110.902344 85.847656 112.578125 81.550781 112.578125 78.09375 C 112.578125 75.386719 114.421875 74.386719 120.316406 76.378906 C 126.257812 78.519531 126.101562 80.523438 124.5625 81.683594 C 123.148438 82.671875 121.039062 84.261719 119.46875 85.699219 C 116.097656 88.972656 109.894531 93.730469 105.214844 96.875 C 113.996094 105.308594 123.289062 109.890625 145.460938 116.503906 C 148.832031 117.492188 149.558594 119.210938 146.304688 119.640625 C 123.574219 122.34375 122.726562 122.066406 118.515625 118.640625 Z M 118.519531 118.628906 " fill-opacity="1" fill-rule="nonzero"/></g></g></g><g clip-path="url(#05dd587317)"><g transform="matrix(1, 0, 0, 1, 196, 65)"><g clip-path="url(#0dc804ba69)"><g fill="#c91f37" fill-opacity="1"><g transform="translate(0.871603, 46.413021)"><g><path d="M 11.1875 0 L 11.1875 -27.171875 L 1 -27.171875 L 1 -33.96875 L 28.875 -33.96875 L 28.875 -27.171875 L 18.6875 -27.171875 L 18.6875 0 Z M 11.1875 0 "/></g></g></g><g fill="#c91f37" fill-opacity="1"><g transform="translate(30.745355, 46.413021)"><g><path d="M 12.6875 0.5 C 10.625 0.5 8.757812 -0.03125 7.09375 -1.09375 C 5.425781 -2.164062 4.117188 -3.570312 3.171875 -5.3125 C 2.222656 -7.0625 1.75 -8.953125 1.75 -10.984375 C 1.75 -13.015625 2.222656 -14.90625 3.171875 -16.65625 C 4.117188 -18.40625 5.425781 -19.820312 7.09375 -20.90625 C 8.757812 -21.988281 10.625 -22.53125 12.6875 -22.53125 C 14.082031 -22.53125 15.445312 -22.296875 16.78125 -21.828125 C 18.113281 -21.359375 19.265625 -20.523438 20.234375 -19.328125 L 20.234375 -21.984375 L 27.71875 -21.984375 L 27.71875 0 L 20.234375 0 L 20.234375 -2.640625 C 19.734375 -1.910156 19.066406 -1.3125 18.234375 -0.84375 C 17.398438 -0.382812 16.5 -0.0429688 15.53125 0.171875 C 14.570312 0.390625 13.625 0.5 12.6875 0.5 Z M 14.984375 -5.5 C 15.984375 -5.5 16.875 -5.753906 17.65625 -6.265625 C 18.4375 -6.785156 19.0625 -7.460938 19.53125 -8.296875 C 20 -9.128906 20.234375 -10.023438 20.234375 -10.984375 C 20.234375 -11.953125 20 -12.851562 19.53125 -13.6875 C 19.0625 -14.519531 18.4375 -15.191406 17.65625 -15.703125 C 16.875 -16.222656 15.984375 -16.484375 14.984375 -16.484375 C 13.984375 -16.484375 13.09375 -16.222656 12.3125 -15.703125 C 11.53125 -15.191406 10.90625 -14.519531 10.4375 -13.6875 C 9.96875 -12.851562 9.734375 -11.953125 9.734375 -10.984375 C 9.734375 -10.023438 9.96875 -9.128906 10.4375 -8.296875 C 10.90625 -7.460938 11.53125 -6.785156 12.3125 -6.265625 C 13.09375 -5.753906 13.984375 -5.5 14.984375 -5.5 Z M 14.984375 -5.5 "/></g></g></g><g fill="#c91f37" fill-opacity="1"><g transform="translate(61.468369, 46.413021)"><g><path d="M 3 0 L 3 -37.46875 L 10.484375 -37.46875 L 10.484375 -13.28125 L 17.53125 -22.03125 L 26.828125 -22.03125 L 17.328125 -11.546875 L 27.828125 0 L 18.234375 0 L 10.484375 -9.734375 L 10.484375 0 Z M 3 0 "/></g></g></g><g fill="#c91f37" fill-opacity="1"><g transform="translate(89.293921, 46.413021)"><g><path d="M 12.6875 0.5 C 10.625 0.5 8.757812 -0.03125 7.09375 -1.09375 C 5.425781 -2.164062 4.117188 -3.570312 3.171875 -5.3125 C 2.222656 -7.0625 1.75 -8.953125 1.75 -10.984375 C 1.75 -13.015625 2.222656 -14.90625 3.171875 -16.65625 C 4.117188 -18.40625 5.425781 -19.820312 7.09375 -20.90625 C 8.757812 -21.988281 10.625 -22.53125 12.6875 -22.53125 C 14.082031 -22.53125 15.445312 -22.296875 16.78125 -21.828125 C 18.113281 -21.359375 19.265625 -20.523438 20.234375 -19.328125 L 20.234375 -21.984375 L 27.71875 -21.984375 L 27.71875 0 L 20.234375 0 L 20.234375 -2.640625 C 19.734375 -1.910156 19.066406 -1.3125 18.234375 -0.84375 C 17.398438 -0.382812 16.5 -0.0429688 15.53125 0.171875 C 14.570312 0.390625 13.625 0.5 12.6875 0.5 Z M 14.984375 -5.5 C 15.984375 -5.5 16.875 -5.753906 17.65625 -6.265625 C 18.4375 -6.785156 19.0625 -7.460938 19.53125 -8.296875 C 20 -9.128906 20.234375 -10.023438 20.234375 -10.984375 C 20.234375 -11.953125 20 -12.851562 19.53125 -13.6875 C 19.0625 -14.519531 18.4375 -15.191406 17.65625 -15.703125 C 16.875 -16.222656 15.984375 -16.484375 14.984375 -16.484375 C 13.984375 -16.484375 13.09375 -16.222656 12.3125 -15.703125 C 11.53125 -15.191406 10.90625 -14.519531 10.4375 -13.6875 C 9.96875 -12.851562 9.734375 -11.953125 9.734375 -10.984375 C 9.734375 -10.023438 9.96875 -9.128906 10.4375 -8.296875 C 10.90625 -7.460938 11.53125 -6.785156 12.3125 -6.265625 C 13.09375 -5.753906 13.984375 -5.5 14.984375 -5.5 Z M 14.984375 -5.5 "/></g></g></g><g fill="#c91f37" fill-opacity="1"><g transform="translate(120.016935, 46.413021)"><g><path d="M 12.6875 0.5 C 10.625 0.5 8.757812 -0.03125 7.09375 -1.09375 C 5.425781 -2.164062 4.117188 -3.570312 3.171875 -5.3125 C 2.222656 -7.0625 1.75 -8.953125 1.75 -10.984375 C 1.75 -13.015625 2.222656 -14.90625 3.171875 -16.65625 C 4.117188 -18.40625 5.425781 -19.820312 7.09375 -20.90625 C 8.757812 -21.988281 10.625 -22.53125 12.6875 -22.53125 C 14.082031 -22.53125 15.445312 -22.296875 16.78125 -21.828125 C 18.113281 -21.359375 19.265625 -20.523438 20.234375 -19.328125 L 20.234375 -37.46875 L 27.71875 -37.46875 L 27.71875 0 L 20.234375 0 L 20.234375 -2.640625 C 19.734375 -1.910156 19.066406 -1.3125 18.234375 -0.84375 C 17.398438 -0.382812 16.5 -0.0429688 15.53125 0.171875 C 14.570312 0.390625 13.625 0.5 12.6875 0.5 Z M 14.984375 -5.5 C 15.984375 -5.5 16.875 -5.753906 17.65625 -6.265625 C 18.4375 -6.785156 19.0625 -7.460938 19.53125 -8.296875 C 20 -9.128906 20.234375 -10.023438 20.234375 -10.984375 C 20.234375 -11.953125 20 -12.851562 19.53125 -13.6875 C 19.0625 -14.519531 18.4375 -15.191406 17.65625 -15.703125 C 16.875 -16.222656 15.984375 -16.484375 14.984375 -16.484375 C 13.984375 -16.484375 13.09375 -16.222656 12.3125 -15.703125 C 11.53125 -15.191406 10.90625 -14.519531 10.4375 -13.6875 C 9.96875 -12.851562 9.734375 -11.953125 9.734375 -10.984375 C 9.734375 -10.023438 9.96875 -9.128906 10.4375 -8.296875 C 10.90625 -7.460938 11.53125 -6.785156 12.3125 -6.265625 C 13.09375 -5.753906 13.984375 -5.5 14.984375 -5.5 Z M 14.984375 -5.5 "/></g></g></g><g fill="#c91f37" fill-opacity="1"><g transform="translate(150.739949, 46.413021)"><g><path d="M 12.6875 0.5 C 10.625 0.5 8.757812 -0.03125 7.09375 -1.09375 C 5.425781 -2.164062 4.117188 -3.570312 3.171875 -5.3125 C 2.222656 -7.0625 1.75 -8.953125 1.75 -10.984375 C 1.75 -13.015625 2.222656 -14.90625 3.171875 -16.65625 C 4.117188 -18.40625 5.425781 -19.820312 7.09375 -20.90625 C 8.757812 -21.988281 10.625 -22.53125 12.6875 -22.53125 C 14.082031 -22.53125 15.445312 -22.296875 16.78125 -21.828125 C 18.113281 -21.359375 19.265625 -20.523438 20.234375 -19.328125 L 20.234375 -21.984375 L 27.71875 -21.984375 L 27.71875 0 L 20.234375 0 L 20.234375 -2.640625 C 19.734375 -1.910156 19.066406 -1.3125 18.234375 -0.84375 C 17.398438 -0.382812 16.5 -0.0429688 15.53125 0.171875 C 14.570312 0.390625 13.625 0.5 12.6875 0.5 Z M 14.984375 -5.5 C 15.984375 -5.5 16.875 -5.753906 17.65625 -6.265625 C 18.4375 -6.785156 19.0625 -7.460938 19.53125 -8.296875 C 20 -9.128906 20.234375 -10.023438 20.234375 -10.984375 C 20.234375 -11.953125 20 -12.851562 19.53125 -13.6875 C 19.0625 -14.519531 18.4375 -15.191406 17.65625 -15.703125 C 16.875 -16.222656 15.984375 -16.484375 14.984375 -16.484375 C 13.984375 -16.484375 13.09375 -16.222656 12.3125 -15.703125 C 11.53125 -15.191406 10.90625 -14.519531 10.4375 -13.6875 C 9.96875 -12.851562 9.734375 -11.953125 9.734375 -10.984375 C 9.734375 -10.023438 9.96875 -9.128906 10.4375 -8.296875 C 10.90625 -7.460938 11.53125 -6.785156 12.3125 -6.265625 C 13.09375 -5.753906 13.984375 -5.5 14.984375 -5.5 Z M 14.984375 -5.5 "/></g></g></g><g fill="#c91f37" fill-opacity="1"><g transform="translate(181.462963, 46.413021)"><g/></g></g><g fill="#c91f37" fill-opacity="1"><g transform="translate(194.951108, 46.413021)"><g><path d="M 11.1875 0 L 11.1875 -27.171875 L 1 -27.171875 L 1 -33.96875 L 28.875 -33.96875 L 28.875 -27.171875 L 18.6875 -27.171875 L 18.6875 0 Z M 11.1875 0 "/></g></g></g><g fill="#c91f37" fill-opacity="1"><g transform="translate(224.824861, 46.413021)"><g><path d="M 3 0 L 3 -22.03125 L 10.484375 -22.03125 L 10.484375 -19.328125 C 10.890625 -19.898438 11.40625 -20.425781 12.03125 -20.90625 C 12.664062 -21.382812 13.390625 -21.773438 14.203125 -22.078125 C 15.023438 -22.378906 15.882812 -22.53125 16.78125 -22.53125 C 17.113281 -22.53125 17.492188 -22.488281 17.921875 -22.40625 C 18.359375 -22.320312 18.726562 -22.195312 19.03125 -22.03125 L 19.03125 -15.234375 C 18.664062 -15.703125 18.195312 -16.023438 17.625 -16.203125 C 17.0625 -16.390625 16.5 -16.484375 15.9375 -16.484375 C 15 -16.484375 14.113281 -16.207031 13.28125 -15.65625 C 12.445312 -15.113281 11.769531 -14.425781 11.25 -13.59375 C 10.738281 -12.757812 10.484375 -11.890625 10.484375 -10.984375 L 10.484375 0 Z M 3 0 "/></g></g></g><g fill="#c91f37" fill-opacity="1"><g transform="translate(245.107039, 46.413021)"><g><path d="M 12.6875 0.5 C 10.625 0.5 8.757812 -0.03125 7.09375 -1.09375 C 5.425781 -2.164062 4.117188 -3.570312 3.171875 -5.3125 C 2.222656 -7.0625 1.75 -8.953125 1.75 -10.984375 C 1.75 -13.015625 2.222656 -14.90625 3.171875 -16.65625 C 4.117188 -18.40625 5.425781 -19.820312 7.09375 -20.90625 C 8.757812 -21.988281 10.625 -22.53125 12.6875 -22.53125 C 14.082031 -22.53125 15.445312 -22.296875 16.78125 -21.828125 C 18.113281 -21.359375 19.265625 -20.523438 20.234375 -19.328125 L 20.234375 -21.984375 L 27.71875 -21.984375 L 27.71875 0 L 20.234375 0 L 20.234375 -2.640625 C 19.734375 -1.910156 19.066406 -1.3125 18.234375 -0.84375 C 17.398438 -0.382812 16.5 -0.0429688 15.53125 0.171875 C 14.570312 0.390625 13.625 0.5 12.6875 0.5 Z M 14.984375 -5.5 C 15.984375 -5.5 16.875 -5.753906 17.65625 -6.265625 C 18.4375 -6.785156 19.0625 -7.460938 19.53125 -8.296875 C 20 -9.128906 20.234375 -10.023438 20.234375 -10.984375 C 20.234375 -11.953125 20 -12.851562 19.53125 -13.6875 C 19.0625 -14.519531 18.4375 -15.191406 17.65625 -15.703125 C 16.875 -16.222656 15.984375 -16.484375 14.984375 -16.484375 C 13.984375 -16.484375 13.09375 -16.222656 12.3125 -15.703125 C 11.53125 -15.191406 10.90625 -14.519531 10.4375 -13.6875 C 9.96875 -12.851562 9.734375 -11.953125 9.734375 -10.984375 C 9.734375 -10.023438 9.96875 -9.128906 10.4375 -8.296875 C 10.90625 -7.460938 11.53125 -6.785156 12.3125 -6.265625 C 13.09375 -5.753906 13.984375 -5.5 14.984375 -5.5 Z M 14.984375 -5.5 "/></g></g></g><g fill="#c91f37" fill-opacity="1"><g transform="translate(275.83007, 46.413021)"><g><path d="M 8.890625 0 L 0.5 -22.03125 L 8.046875 -22.03125 L 13.28125 -6.296875 L 18.53125 -22.03125 L 26.125 -22.03125 L 17.734375 0 Z M 8.890625 0 "/></g></g></g><g fill="#c91f37" fill-opacity="1"><g transform="translate(302.45667, 46.413021)"><g><path d="M 14.59375 0.5 C 12.0625 0.5 9.828125 0.0234375 7.890625 -0.921875 C 5.960938 -1.867188 4.457031 -3.203125 3.375 -4.921875 C 2.289062 -6.640625 1.75 -8.660156 1.75 -10.984375 C 1.75 -13.285156 2.304688 -15.300781 3.421875 -17.03125 C 4.535156 -18.757812 6.054688 -20.109375 7.984375 -21.078125 C 9.921875 -22.046875 12.125 -22.53125 14.59375 -22.53125 C 16.820312 -22.53125 18.859375 -22.054688 20.703125 -21.109375 C 22.554688 -20.160156 24.039062 -18.816406 25.15625 -17.078125 C 26.269531 -15.347656 26.828125 -13.300781 26.828125 -10.9375 L 26.828125 -9.546875 L 8.1875 -9.546875 L 8.1875 -13.84375 L 19.625 -13.84375 C 19.625 -14.96875 19.175781 -15.894531 18.28125 -16.625 C 17.382812 -17.363281 16.203125 -17.734375 14.734375 -17.734375 C 13.535156 -17.734375 12.546875 -17.5 11.765625 -17.03125 C 10.984375 -16.5625 10.398438 -15.894531 10.015625 -15.03125 C 9.628906 -14.164062 9.4375 -13.132812 9.4375 -11.9375 C 9.4375 -10.4375 9.644531 -9.144531 10.0625 -8.0625 C 10.476562 -6.976562 11.066406 -6.144531 11.828125 -5.5625 C 12.597656 -4.988281 13.46875 -4.703125 14.4375 -4.703125 C 15.46875 -4.703125 16.421875 -4.832031 17.296875 -5.09375 C 18.179688 -5.363281 18.945312 -5.6875 19.59375 -6.0625 C 20.25 -6.445312 20.726562 -6.84375 21.03125 -7.25 L 25.28125 -3.59375 C 24.644531 -2.863281 23.773438 -2.191406 22.671875 -1.578125 C 21.578125 -0.960938 20.335938 -0.460938 18.953125 -0.078125 C 17.578125 0.304688 16.125 0.5 14.59375 0.5 Z M 14.59375 0.5 "/></g></g></g><g fill="#c91f37" fill-opacity="1"><g transform="translate(331.031565, 46.413021)"><g><path d="M 3 0 L 3 -37.46875 L 10.484375 -37.46875 L 10.484375 0 Z M 3 0 "/></g></g></g></g></g></g></svg>